<svg width="220" height="40" viewBox="0 0 220 40" fill="none" xmlns="http://www.w3.org/2000/svg">
<path d="M28.2143 0.357143H0V40L28.2143 33.9286V0.357143Z" fill="#FFE48C"/>
<path d="M9.91128 34.6413C9.23051 34.6772 8.11978 34.1024 7.79731 33.4917C7.1882 32.3781 7.04488 31.013 6.97322 29.7197C6.82989 27.3129 6.79406 24.9419 6.75823 22.535C6.7224 22.535 6.68657 22.535 6.68657 22.535C5.6475 22.4632 4.75175 21.8166 4.42928 20.8466C3.856 19.2301 5.07422 17.5417 6.75823 17.5058C6.75823 14.9552 6.8299 12.4046 7.04488 9.81813C7.08071 9.67443 7.08071 9.49482 7.11654 9.3152C7.04488 9.1715 7.04488 9.02781 7.00905 8.88412C6.8299 7.26756 8.15561 5.93839 9.76796 6.08208C13.351 6.4054 17.0056 6.44132 20.6245 6.33355C21.6635 6.29763 22.5951 6.83648 23.0251 7.77049C23.7775 9.42297 22.5951 11.291 20.8036 11.3269C17.8656 11.4347 14.9275 11.4347 11.9894 11.291C11.8103 13.4105 11.7744 15.5659 11.7744 17.7213C14.2109 17.8291 16.6473 17.8291 19.0838 17.8291C21.4486 17.8291 22.5593 20.7748 20.732 22.2836C20.302 22.6428 19.6929 22.8584 19.1196 22.8584C16.6832 22.8584 14.2109 22.8584 11.7744 22.7506C11.7744 25.1934 11.8461 27.6362 12.0253 30.079C12.0969 30.7615 12.3477 31.4081 12.3836 32.0907C12.4552 32.8092 11.8819 33.8869 11.2728 34.2102C10.8429 34.4257 10.3771 34.5694 9.91128 34.6413Z" fill="#FF4646"/>
<path d="M54.6429 35.3571H31.4286V6.07143L59.4643 2.5L54.6429 35.3571Z" fill="#FF4646"/>
<path d="M48.2518 31.2737C45.9228 31.7766 43.3789 31.6688 41.1216 30.9504C39.4734 30.4115 37.9327 29.2979 36.8578 27.9328C36.2129 27.1425 35.7113 26.2444 35.353 25.3104C34.2064 22.221 34.493 18.4131 35.8904 15.4314C36.4279 14.3537 37.1445 13.3119 38.0044 12.4498C39.3301 11.1206 41.1216 10.1507 42.9489 9.79144C45.4929 9.32443 48.4668 9.97105 50.5091 11.5517C51.5482 12.3779 52.3364 13.5275 52.7305 14.7848C53.1247 16.1499 52.9814 17.7664 52.4439 19.0597C52.1214 19.85 51.6198 20.5326 51.0465 21.1433C50.0075 22.2569 48.6101 23.0113 47.1769 23.5142C45.0629 24.2686 42.8414 24.5919 40.62 24.7715C41.0499 25.3822 41.6232 25.8852 42.2682 26.2444C42.6623 26.424 43.0923 26.5318 43.4864 26.6396C44.8479 26.9269 46.3528 26.891 47.6785 26.4599C48.3593 26.2444 48.9326 25.8492 49.5417 25.49C50.3299 25.0589 51.6915 25.2385 52.3006 25.8852C52.7305 26.3522 53.1605 26.9629 53.1247 27.5736C53.0889 28.1843 52.9097 28.8668 52.4797 29.262C51.2973 30.2678 49.7567 30.9144 48.2518 31.2737ZM41.2291 16.1499C40.3692 17.2635 39.9034 18.6645 39.7242 20.0656C41.4082 19.9578 43.0923 19.7422 44.6688 19.2752C46.3528 18.8082 48.3234 17.7664 47.8935 16.078C47.786 15.647 47.4635 15.2877 47.1052 15.0722C45.9945 14.3896 44.4538 14.21 43.2356 14.6411C42.4473 14.9285 41.7665 15.5033 41.2291 16.1499Z" fill="#FDFDFD"/>
<path d="M74.2857 3.57143L60.7143 9.64286V29.6429L68.5714 36.6071L87.8571 33.9286V9.64286L74.2857 3.57143Z" fill="#00804D"/>
<path d="M71.9805 29.2592C71.9088 31.6302 68.9708 32.672 67.5017 30.8039C67.1793 30.3369 66.9643 29.7262 66.9643 29.1515C67.0718 24.8047 67.3584 20.458 67.2868 16.1112C67.2868 15.1054 67.3226 14.0995 67.1434 13.0937C67.0001 12.2315 67.2868 11.2256 67.8959 10.6149C69.2574 9.28577 71.5864 9.93239 72.1955 11.7645C72.303 12.1237 72.303 12.483 72.303 12.8063C72.6613 12.483 73.0196 12.1956 73.4137 11.9082C74.2736 11.2975 75.1694 10.7946 76.1726 10.5072C77.14 10.1839 78.2508 10.0761 79.2182 10.4353C80.4364 10.9023 81.2605 11.6567 81.7263 12.8781C82.2279 14.0995 82.2637 15.5005 82.1562 16.8297C82.0129 18.087 81.9054 19.3803 81.9771 20.6376C81.9771 20.8531 82.0487 21.0687 82.0846 21.2842C82.4429 23.2959 80.3647 24.8766 78.5374 23.9425C77.8208 23.6192 77.2833 22.8289 77.1042 22.0386C76.7459 20.2065 76.9609 18.3026 77.14 16.4345C77.1758 16.1112 77.2117 15.7879 77.2117 15.4646C76.2443 15.9675 75.3844 16.7219 74.6678 17.5122C73.8795 18.3385 73.1629 19.3084 72.6613 20.3861C72.4821 20.8172 72.3746 21.3201 72.2671 21.7512C72.1955 24.2659 72.0522 26.7805 71.9805 29.2592Z" fill="#FFE48C"/>
<path d="M90 8.92857L92.1429 35.7143H101.429L107.321 32.5L106.071 23.0357L105.179 2.85714L99.1071 1.78571L90 8.92857Z" fill="#FF68D9"/>
<path d="M100.771 9.92871C100.413 10.7909 99.1945 11.4375 98.263 11.2579C97.833 11.1501 97.3672 11.0064 96.9731 10.719C95.3249 9.46171 95.8623 6.87522 97.833 6.19267C98.5138 5.97713 99.302 6.04898 99.9111 6.40821C100.198 6.58783 100.413 6.83929 100.628 7.09076C101.094 7.59368 101.273 8.81508 100.986 9.42578C100.914 9.6054 100.843 9.74909 100.771 9.92871ZM101.703 31.411C101.022 31.9857 99.9111 32.1654 99.0512 31.9498C98.3346 31.7702 97.618 31.411 97.1164 30.8721C96.1848 29.8662 95.5757 28.5012 95.3965 27.172C94.8949 23.2922 95.3965 19.3766 95.5399 15.4969C95.5399 14.9939 95.719 14.4191 96.0057 13.9881C97.4747 11.8686 100.628 13.09 100.556 15.6765C100.413 19.2329 99.9111 22.8612 100.377 26.3817C100.377 26.4894 100.377 26.5972 100.413 26.6691C100.449 26.7409 100.556 26.705 100.664 26.7409C100.95 26.8487 101.237 26.9564 101.523 27.1361C102.957 28.1419 103.028 30.2255 101.703 31.411Z" fill="#002E91"/>
<path d="M122.857 3.92857L109.286 10V30L117.143 36.9643L136.429 34.2857V10L122.857 3.92857Z" fill="#529DFF"/>
<path d="M132.383 31.6209C131.81 31.8723 131.129 32.052 130.556 31.8723C128.872 31.2976 127.654 29.5373 127.081 27.8848C126.221 29.0344 125.002 30.0762 123.677 30.6509C122.387 31.2257 120.954 31.4413 119.52 31.3335C118.589 31.2616 117.657 31.0102 116.833 30.5432C116.081 30.1121 115.436 29.5373 114.898 28.8548C113.68 27.2382 113.214 25.0828 113.214 23.0711C113.214 20.0535 114.11 16.8922 115.794 14.3776C116.869 12.761 118.517 11.2882 120.38 10.6416C121.634 10.2105 123.103 10.1386 124.357 10.4979C125.468 10.8212 126.507 11.396 127.403 12.1144C129.051 10.3901 132.025 11.6115 131.774 13.9824C131.452 17.5748 131.631 21.1671 131.631 24.7595C131.631 25.3343 131.667 25.9809 131.918 26.5197C132.061 26.9149 132.276 27.3101 132.634 27.5615C133.458 28.1363 133.852 29.1422 133.602 30.0762C133.422 30.7228 132.992 31.3694 132.383 31.6209ZM119.449 26.376C120.022 26.6634 121.348 26.412 121.885 26.0887C122.745 25.5498 123.354 24.6517 123.784 23.7536C124.716 21.8497 125.182 19.7302 125.647 17.6466C125.146 16.6408 124.25 15.6708 123.175 15.2398C122.566 14.9883 121.778 15.2757 121.24 15.6708C118.983 17.3233 117.729 22.1371 118.445 24.8313C118.589 25.442 118.875 26.1246 119.449 26.376Z" fill="#FDFDFD"/>
<path d="M138.571 27.3214L145 37.1429L164.643 33.9286V0L138.571 8.03571V27.3214Z" fill="#FF0285"/>
<path d="M162.284 30.7851C161.89 31.6832 160.636 32.2939 159.74 32.0425C158.88 31.8628 158.056 31.4677 157.447 30.8211C157.053 30.4618 156.695 29.9948 156.408 29.5278C155.369 30.4618 154.151 31.1444 152.861 31.5395C151.32 32.0425 149.601 32.1143 148.024 31.791C146.519 31.4318 145.086 30.7133 143.939 29.6715C142.685 28.522 141.718 26.9413 141.216 25.2888C140.571 23.0257 140.536 20.7625 141.18 18.5352C141.575 17.0624 142.363 15.6254 143.402 14.4759C144.477 13.3622 145.946 12.5001 147.451 12.1408C150.245 11.4583 153.255 12.1408 155.548 13.7933C155.692 11.7457 155.871 9.69805 156.05 7.65041C156.086 7.29118 156.157 6.96786 156.301 6.64455C157.34 4.38137 160.636 4.84838 161.066 7.29118C161.138 7.86595 161.03 8.44073 160.959 9.0155C160.708 12.1049 160.493 15.2303 160.278 18.3197C160.17 19.6848 160.063 21.0858 160.027 22.4509C160.027 22.6305 160.027 22.8101 160.027 23.0257C160.027 23.816 160.063 24.6063 160.135 25.3966C160.206 25.8995 160.457 26.9772 160.923 27.1928C161.353 27.4083 161.783 27.6598 162.069 28.0549C162.356 28.4142 162.499 28.8812 162.607 29.3482C162.678 29.8152 162.499 30.3541 162.284 30.7851ZM147.952 26.6899C148.597 27.1209 149.421 27.3365 150.21 27.3006C151.177 27.2646 152.144 26.7976 152.897 26.1869C153.936 25.2888 154.617 23.9237 155.011 22.5587C155.047 22.5227 154.975 22.3431 154.975 22.3072C154.724 20.5469 154.008 18.643 152.574 17.5653C151.464 16.7391 149.851 16.3798 148.526 16.7391C147.522 17.0264 146.734 17.9605 146.304 18.9304C145.229 21.445 145.623 25.2529 147.952 26.6899Z" fill="#002E91"/>
<path d="M169.821 36.9643H187.679L189.643 14.1071L187.679 11.25L181.25 2.5H169.821L166.786 28.5714L169.821 36.9643Z" fill="#67FAFF"/>
<path d="M179.132 32.1238C177.033 32.6063 174.835 32.2415 173.08 31.1282C172.221 30.5987 171.444 29.92 170.814 29.1154C169.656 27.612 168.913 25.7902 168.67 23.9281C168.467 22.1769 168.574 20.3722 169.031 18.6248C169.533 16.6458 170.572 14.7091 172.018 13.1388C173.319 11.7226 175.173 10.5471 177.149 10.103C178.786 9.7432 180.464 9.89329 181.99 10.5117C183.711 11.2 185.201 12.5341 186.108 14.0576C186.797 15.1996 187.247 16.5033 187.51 17.8221C188.096 20.8255 187.451 24.156 185.909 26.8744C184.974 28.5462 183.553 30.029 181.843 31.0504C181.034 31.5431 180.091 31.9326 179.132 32.1238ZM180.549 20.3779C181.492 20.3875 182.42 20.1988 183.343 19.9535C183.311 19.1578 183.183 18.3414 182.963 17.5608C182.661 16.5303 182.075 15.4941 181.168 14.7687C180.594 14.2732 179.842 13.9061 179.054 13.884C178.425 13.8776 177.747 14.0462 177.172 14.3205C176.854 14.6598 176.636 15.0764 176.482 15.5164C176.211 16.4505 176.326 17.4961 176.711 18.3774C176.98 18.9831 177.465 19.5427 178.087 19.8633C178.811 20.2612 179.701 20.3891 180.549 20.3779ZM177.164 28.3479C178.208 28.4349 179.271 27.9787 180.04 27.3752C181.137 26.5457 181.956 25.3964 182.488 24.1847C181.308 24.3652 180.119 24.4324 178.976 24.2962C177.801 24.1342 176.642 23.7998 175.653 23.2236C174.566 22.5984 173.677 21.7006 173.06 20.6669C172.872 21.8509 172.936 23.0432 173.185 24.192C173.423 25.1992 173.882 26.2172 174.608 27.0425C175.229 27.7338 176.184 28.2841 177.164 28.3479Z" fill="#00804D"/>
<path d="M191.786 0.357143H220V40L191.786 33.9286V0.357143Z" fill="#A812FF"/>
<path d="M205.91 31.9732C204.692 32.3684 203.33 32.4402 202.076 32.1887C200.786 31.8654 199.532 31.111 198.672 30.1052C197.956 29.3149 197.383 28.3449 197.168 27.3032C196.702 25.1118 196.738 22.8127 196.881 20.5855C197.024 18.0349 197.311 15.4843 197.741 12.9697C197.777 12.7541 197.848 12.5745 197.92 12.3949C198.099 11.7124 199.031 10.922 199.747 10.8502C200.213 10.7783 200.751 10.7783 201.181 10.958C202.291 11.425 202.936 12.6104 202.685 13.7959C202.148 16.7416 201.861 19.7233 201.79 22.7409C201.79 23.7467 201.79 24.7526 201.933 25.7584C202.04 26.2973 202.363 26.8721 202.829 27.1235C203.868 27.6983 205.301 26.9439 205.982 25.974C206.949 24.6807 207.523 23.136 207.952 21.5913C208.418 20.0107 208.777 18.3941 209.099 16.7776C209.422 15.1969 209.744 13.5804 210.317 12.0357C211.356 9.19772 215.548 10.2036 215.154 13.2211C214.796 15.9873 214.079 18.6815 213.757 21.4476C213.649 22.5253 213.578 23.603 213.649 24.6807C213.721 25.3992 213.829 26.2254 214.294 26.7643C214.653 27.1235 215.19 27.2672 215.656 27.4468C216.265 27.6983 216.982 28.7401 217.017 29.4226C217.017 29.8896 216.91 30.3926 216.731 30.8237C216.48 31.4703 215.477 32.1887 214.796 32.1887C214.259 32.1887 213.721 32.1169 213.255 31.9373C211.894 31.4344 210.64 30.3926 209.887 29.1712C208.884 30.4644 207.451 31.4703 205.91 31.9732Z" fill="#FDFDFD"/>
</svg>
